{"glyphs":{":":{"x_min":0,"x_max":196,"ha":196,"o":"m 47 95 l 59 208 l 164 208 l 152 95 z m 81 415 l 93 529 l 198 529 l 186 415 z"},"$":{"x_min":0,"x_max":488,"ha":488,"o":"m 213 -78 l 221 -9 q 123 -7 79 56 q 38 112 38 206 q 38 215 39 225 l 139 251 q 138 240 138 229 q 139 206 141 187 q 144 158 154 132 q 164 106 185 92 q 206 77 237 77 q 282 77 308 102 q 334 126 339 174 q 340 184 340 193 q 340 204 338 214 q 335 233 330 247 q 325 261 314 277 q 302 293 293 304 q 284 314 267 332 l 143 454 q 106 491 92 532 q 82 561 82 598 q 82 614 83 632 q 92 717 146 765 q 200 814 285 817 l 292 885 l 326 885 l 319 817 q 400 812 438 761 q 473 711 473 616 q 473 612 473 608 l 378 583 q 378 594 378 605 q 378 626 376 643 q 374 668 364 690 q 355 713 335 724 q 318 733 293 733 q 289 733 284 732 q 191 727 182 642 q 181 633 181 625 q 181 601 188 583 q 198 558 224 531 l 349 410 q 397 361 423 307 q 443 264 443 211 q 443 198 441 183 q 433 102 382 51 q 332 1 255 -7 l 248 -78 z"},"?":{"x_min":0,"x_max":485,"ha":485,"o":"m 161 203 l 174 327 q 218 362 250 391 q 282 421 312 457 q 343 494 361 533 q 379 573 384 614 q 385 624 385 632 q 385 671 364 697 q 339 729 294 729 q 247 729 222 702 q 199 677 199 638 q 199 633 199 628 l 201 592 l 103 574 l 100 609 q 99 622 99 633 q 99 712 149 763 q 208 820 305 820 q 399 820 447 766 q 486 721 487 645 q 487 629 485 611 q 481 574 468 539 q 454 504 437 477 q 419 450 391 420 q 362 389 338 367 q 314 345 276 312 q 273 310 272 308 q 270 307 267 304 q 265 302 263 300 l 253 203 z m 135 0 l 146 107 l 250 107 l 238 0 z"},"<":{"x_min":0,"x_max":372,"ha":372,"o":"m 295 38 l 31 241 l 42 345 l 349 549 l 337 444 l 114 293 l 306 142 z"},"'":{"x_min":0,"x_max":358,"ha":358,"o":"m 121 562 l 146 810 l 240 810 l 176 562 z"},"=":{"x_min":0,"x_max":414,"ha":414,"o":"m 60 280 l 68 359 l 374 359 l 366 280 z m 78 456 l 86 535 l 392 535 l 384 456 z"},"a":{"x_min":0,"x_max":423,"ha":423,"o":"m 133 -8 q 83 -8 54 32 q 29 66 29 109 q 29 117 30 125 q 33 155 43 180 q 53 205 62 223 q 72 241 95 260 q 118 278 130 288 q 143 298 177 314 q 211 330 225 336 q 239 342 281 358 q 283 359 284 360 l 289 401 q 291 425 291 443 q 291 470 286 484 q 276 509 241 508 q 178 508 169 425 l 166 396 l 64 400 q 64 403 65 410 q 66 418 67 421 q 81 508 128 547 q 175 586 255 586 q 338 587 370 541 q 395 506 395 443 q 395 424 392 402 l 364 136 q 359 86 359 31 q 359 16 359 0 l 265 0 q 260 49 260 85 q 244 45 211 19 q 178 -8 133 -8 z m 183 82 q 205 82 227 98 q 249 114 260 131 l 278 296 q 274 295 269 292 q 243 278 230 271 q 217 264 198 250 q 178 236 168 224 q 158 212 149 195 q 140 177 138 157 q 137 148 137 141 q 137 116 146 101 q 158 82 183 82 z"},"L":{"x_min":0,"x_max":396,"ha":396,"o":"m 40 0 l 125 810 l 234 810 l 158 79 l 367 79 l 358 0 z"},"3":{"x_min":0,"x_max":500,"ha":500,"o":"m 221 -9 q 124 -9 80 45 q 44 89 45 161 q 45 179 47 198 l 49 224 l 153 224 q 152 222 151 207 q 149 190 149 176 q 149 135 162 110 q 178 77 230 77 q 285 77 309 114 q 333 152 341 228 q 343 246 343 261 q 343 308 328 337 q 307 376 250 380 q 247 380 234 380 l 246 483 l 260 483 q 318 486 346 514 q 375 543 382 609 q 383 625 383 638 q 383 678 370 701 q 353 732 301 733 q 248 733 224 699 q 201 666 192 601 q 191 588 190 585 l 87 585 l 90 611 q 100 709 156 764 q 212 818 310 818 q 406 818 451 763 q 487 718 488 645 q 488 628 486 609 q 478 537 442 492 q 407 447 351 432 q 403 414 429 362 q 448 323 448 267 q 448 249 446 228 q 434 116 379 53 q 324 -9 221 -9 z"},";":{"x_min":0,"x_max":215,"ha":215,"o":"m 47 -44 l 35 1 q 92 7 99 69 l 43 69 l 55 182 l 163 182 l 151 72 q 146 18 121 -11 q 97 -41 47 -44 z m 83 445 l 95 563 l 200 563 l 188 445 z"},"J":{"x_min":0,"x_max":299,"ha":299,"o":"m -19 -21 l -11 58 q 28 58 50 62 q 73 67 88 82 q 103 96 110 119 q 116 142 121 183 l 186 810 l 295 810 l 230 180 q 224 126 212 90 q 201 54 178 28 q 156 2 121 -9 q 85 -21 33 -21 z"},"V":{"x_min":0,"x_max":504,"ha":504,"o":"m 181 0 l 85 810 l 187 810 l 254 206 l 441 810 l 542 810 l 277 0 z"},"\"":{"x_min":0,"x_max":377,"ha":377,"o":"m 121 562 l 146 810 l 240 810 l 176 562 z m 269 562 l 294 810 l 388 810 l 324 562 z"},"7":{"x_min":0,"x_max":500,"ha":500,"o":"m 144 0 l 368 728 l 123 728 l 131 810 l 479 810 l 474 747 l 243 0 z"},"S":{"x_min":0,"x_max":472,"ha":472,"o":"m 228 -9 q 126 -9 80 54 q 38 110 38 205 q 38 214 39 225 l 139 251 q 138 240 138 229 q 139 206 141 187 q 144 158 154 132 q 164 106 185 92 q 206 77 237 77 q 282 77 308 102 q 334 126 339 174 q 340 184 340 193 q 340 204 338 214 q 335 233 330 247 q 325 261 314 277 q 302 293 293 304 q 284 314 267 332 l 143 454 q 106 491 92 532 q 82 561 82 598 q 82 614 83 632 q 93 719 149 768 q 205 817 292 818 q 294 818 296 818 q 390 817 432 768 q 473 719 473 618 q 473 613 473 608 l 378 583 q 378 594 378 605 q 378 626 376 643 q 374 668 364 690 q 355 713 335 724 q 318 733 293 733 q 289 733 284 732 q 191 727 182 642 q 181 633 181 625 q 181 601 188 583 q 198 558 224 531 l 349 410 q 397 361 423 307 q 443 264 443 211 q 443 198 441 183 q 432 94 373 43 q 314 -9 228 -9 z"},"}":{"x_min":0,"x_max":316,"ha":316,"o":"m -1 -189 l 7 -112 q 47 -112 60 -102 q 74 -90 80 -46 q 82 -31 87 13 l 103 168 q 111 239 131 273 q 152 307 185 315 q 153 322 140 356 q 131 378 131 416 q 131 437 134 462 l 150 616 q 156 672 156 697 q 156 707 155 711 q 152 732 133 738 q 122 741 97 741 l 104 817 q 131 817 150 817 q 168 816 186 813 q 203 811 215 808 q 226 805 236 798 q 246 791 251 784 q 256 777 260 764 q 265 751 266 738 q 267 729 266 716 q 266 711 266 705 q 266 685 264 665 q 262 646 259 616 l 245 478 q 239 439 239 415 q 239 404 240 396 q 243 368 253 360 q 264 351 290 351 l 282 279 q 256 279 243 270 q 231 260 224 235 q 216 209 210 152 l 196 13 q 192 -17 190 -36 q 188 -56 184 -76 q 180 -97 176 -110 q 172 -122 166 -135 q 159 -148 152 -155 q 145 -162 134 -169 q 123 -176 111 -179 q 99 -182 81 -185 q 63 -188 44 -188 q 25 -189 -1 -189 z"},"Z":{"x_min":0,"x_max":416,"ha":416,"o":"m 14 0 l 22 79 l 332 731 l 106 731 l 114 810 l 457 810 l 451 762 l 126 79 l 380 79 l 372 0 z"},"x":{"x_min":0,"x_max":388,"ha":388,"o":"m -14 0 l 148 304 l 49 578 l 149 578 l 216 392 l 312 578 l 414 578 l 252 291 l 356 0 l 257 0 l 186 199 l 84 0 z"},")":{"x_min":0,"x_max":259,"ha":259,"o":"m -14 -191 l -7 -121 q 56 -120 90 19 q 109 99 130 292 q 130 297 131 306 q 132 311 132 314 q 151 501 152 571 q 152 577 152 582 q 152 724 102 744 q 94 747 84 748 l 92 817 q 120 817 142 810 q 165 803 181 787 q 198 772 210 755 q 223 738 230 710 q 237 682 242 658 q 247 634 248 596 q 249 559 249 531 q 249 504 245 460 q 242 417 239 388 q 236 360 231 314 q 225 247 220 207 q 215 167 205 107 q 194 47 183 11 q 172 -25 154 -68 q 135 -111 113 -134 q 90 -158 58 -174 q 25 -190 -14 -191 z"},"&":{"x_min":0,"x_max":605,"ha":605,"o":"m 210 -9 q 127 -9 85 42 q 50 83 50 147 q 50 160 52 174 q 59 244 97 300 q 135 357 196 408 q 191 420 177 450 q 164 481 157 498 q 150 514 142 540 q 134 566 132 590 q 131 602 130 613 q 130 626 132 639 q 140 720 192 769 q 244 818 323 818 q 398 818 442 777 q 479 743 479 687 q 479 677 479 667 q 475 630 457 592 q 439 554 411 519 q 383 484 357 458 q 331 432 298 403 l 402 206 q 440 266 462 371 l 565 371 q 559 315 528 250 q 497 185 460 140 q 473 122 493 110 q 514 98 537 98 l 525 -8 q 518 -9 511 -8 q 492 -7 475 -1 q 458 4 444 17 q 429 29 420 38 q 411 47 397 64 q 394 68 392 70 q 359 34 312 13 q 266 -9 210 -9 z m 219 77 q 279 77 336 138 l 229 334 q 199 301 180 259 q 161 217 156 173 q 155 165 155 156 q 154 146 156 138 q 158 120 165 107 q 171 94 185 85 q 199 77 219 77 z m 267 459 q 307 501 338 558 q 370 615 375 668 q 375 673 375 678 q 375 700 362 715 q 345 732 314 732 q 280 732 259 705 q 239 678 235 639 q 233 625 233 611 q 233 583 239 555 q 248 513 267 459 z"},"_":{"x_min":0,"x_max":343,"ha":343,"o":"m -38 -131 l -29 -53 l 313 -53 l 306 -131 z"},"v":{"x_min":0,"x_max":383,"ha":383,"o":"m 107 0 l 52 578 l 156 578 l 181 110 l 304 578 l 404 578 l 233 0 z"},"O":{"x_min":0,"x_max":538,"ha":538,"o":"m 253 77 q 287 77 310 87 q 333 98 347 119 q 361 141 368 166 q 375 191 379 229 l 416 584 q 419 608 419 628 q 419 638 418 646 q 417 673 407 693 q 398 712 377 722 q 356 732 322 732 q 289 732 265 723 q 242 713 229 692 q 215 671 208 646 q 201 622 197 584 l 160 229 q 157 203 157 182 q 157 163 159 148 q 163 115 186 96 q 209 77 253 77 z m 244 -9 q 184 -9 142 10 q 101 28 80 62 q 59 97 52 145 q 48 168 48 196 q 48 223 52 252 l 84 562 q 98 688 156 753 q 213 818 331 818 q 391 818 432 800 q 473 783 495 749 q 517 715 524 669 q 527 645 527 617 q 527 591 524 562 l 491 252 q 485 191 468 144 q 452 98 423 62 q 394 27 349 9 q 304 -9 244 -9 z"},"(":{"x_min":0,"x_max":296,"ha":296,"o":"m 223 -191 q 188 -190 161 -179 q 135 -168 117 -145 q 100 -122 88 -96 q 77 -71 72 -30 q 67 11 65 44 q 65 57 65 71 q 65 98 67 131 q 70 184 73 219 q 77 254 83 312 q 89 379 94 419 q 99 458 109 519 q 120 579 131 615 q 142 651 160 694 q 179 737 201 761 q 224 784 256 800 q 289 816 328 817 l 321 747 q 298 747 280 729 q 262 712 249 681 q 235 649 225 611 q 215 573 208 523 q 200 472 195 426 q 189 379 183 323 q 183 315 182 312 q 163 124 162 51 q 162 47 162 43 q 162 -101 213 -119 q 221 -122 229 -122 z"},"C":{"x_min":0,"x_max":513,"ha":513,"o":"m 240 -9 q 190 -9 153 5 q 117 18 95 42 q 74 66 62 99 q 50 133 49 173 q 49 181 49 189 q 49 222 52 258 l 83 548 q 90 613 105 660 q 120 707 147 743 q 175 780 220 799 q 265 818 327 818 q 383 818 421 802 q 459 787 479 756 q 499 725 505 683 q 509 661 509 636 q 509 612 506 585 l 499 522 l 396 522 l 401 578 q 403 596 404 607 q 405 619 406 634 q 407 649 406 658 q 405 668 403 680 q 400 691 396 698 q 392 705 385 712 q 379 720 370 724 q 360 728 348 730 q 335 732 319 732 q 291 732 270 724 q 250 716 237 703 q 224 689 215 666 q 207 643 202 621 q 198 598 194 563 l 161 241 q 157 210 157 187 q 157 138 171 113 q 190 77 250 77 q 273 77 290 82 q 307 87 319 98 q 331 109 339 122 q 347 134 352 155 q 357 176 360 194 q 363 211 366 240 l 372 299 l 476 299 l 469 240 q 463 182 449 138 q 435 95 409 61 q 383 26 341 9 q 298 -9 240 -9 z"},"W":{"x_min":0,"x_max":728,"ha":728,"o":"m 145 0 l 97 810 l 189 810 l 215 220 l 388 806 l 465 806 l 515 218 l 663 810 l 753 810 l 538 0 l 458 0 l 407 606 l 228 0 z"},"A":{"x_min":0,"x_max":490,"ha":490,"o":"m -4 0 l 253 810 l 359 810 l 447 0 l 343 0 l 327 206 l 160 206 l 100 0 z m 182 284 l 321 284 l 291 656 z"},"f":{"x_min":0,"x_max":285,"ha":285,"o":"m 65 0 l 118 501 l 48 501 l 56 578 l 125 578 l 129 611 q 133 646 138 669 q 143 693 153 716 q 163 739 177 752 q 192 766 215 774 q 239 782 271 782 q 293 782 338 776 l 330 699 q 326 699 312 701 q 297 704 291 704 q 261 704 250 685 q 238 667 234 628 l 229 578 l 317 578 l 310 501 l 221 501 l 168 0 z"},"Q":{"x_min":0,"x_max":539,"ha":539,"o":"m 394 -165 q 363 -142 326 -96 q 288 -50 265 -8 q 258 -9 245 -9 q 184 -9 143 9 q 102 27 80 62 q 59 97 52 144 q 48 167 49 195 q 49 222 52 252 l 84 562 q 98 688 156 753 q 214 818 332 818 q 392 818 433 800 q 474 783 496 749 q 518 715 525 669 q 528 645 528 617 q 528 591 525 562 l 493 252 q 473 59 348 9 q 365 -22 399 -62 q 433 -101 454 -118 z m 254 77 q 288 77 311 87 q 334 98 348 119 q 362 140 369 166 q 376 191 380 229 l 417 584 q 420 609 420 629 q 420 647 418 663 q 414 696 391 714 q 368 732 323 732 q 289 732 266 723 q 243 713 229 692 q 215 672 208 647 q 201 622 197 584 l 160 229 q 157 204 157 183 q 157 164 159 148 q 163 115 186 96 q 209 77 254 77 z"},"w":{"x_min":0,"x_max":586,"ha":586,"o":"m 98 0 l 65 578 l 151 578 l 167 146 l 291 578 l 370 578 l 403 148 l 510 578 l 595 578 l 439 0 l 351 0 l 314 414 l 192 0 z"},"-":{"x_min":0,"x_max":319,"ha":319,"o":"m 52 265 l 61 343 l 283 343 l 275 265 z"},"E":{"x_min":0,"x_max":406,"ha":406,"o":"m 40 0 l 125 810 l 437 810 l 428 729 l 226 729 l 197 458 l 362 458 l 354 379 l 189 379 l 158 79 l 363 79 l 354 0 z"},"s":{"x_min":0,"x_max":372,"ha":372,"o":"m 163 -8 q 93 -8 55 36 q 18 79 18 147 q 18 151 18 155 l 107 181 q 107 123 124 96 q 140 68 176 68 q 206 68 226 88 q 246 107 248 136 q 248 140 248 143 q 248 184 208 221 l 120 303 q 87 334 72 366 q 62 390 62 420 q 62 432 63 445 q 72 512 115 549 q 158 586 226 586 q 291 587 324 544 q 356 503 355 440 q 355 437 355 434 l 283 408 q 282 458 268 484 q 254 510 222 510 q 194 510 176 492 q 158 475 156 450 q 155 446 155 443 q 155 412 180 388 l 271 296 q 306 262 324 226 q 339 197 339 159 q 339 149 338 139 q 331 67 283 29 q 236 -8 163 -8 z"},">":{"x_min":0,"x_max":372,"ha":372,"o":"m 38 38 l 49 143 l 272 294 l 81 444 l 91 549 l 356 346 l 346 242 z"},"l":{"x_min":0,"x_max":227,"ha":227,"o":"m 41 0 l 125 810 l 229 810 l 145 0 z"},"8":{"x_min":0,"x_max":500,"ha":500,"o":"m 84 52 q 53 99 53 177 q 53 200 56 227 q 62 281 80 321 q 98 361 121 384 q 145 407 179 427 q 104 478 104 578 q 104 593 106 609 q 117 708 170 763 q 222 818 317 818 q 412 818 453 763 q 485 719 485 648 q 485 629 483 609 q 470 485 373 427 q 395 412 410 396 q 425 379 438 355 q 450 332 454 300 q 456 284 456 266 q 456 248 454 227 q 442 113 388 52 q 335 -9 230 -9 q 125 -9 84 52 z m 354 226 q 355 245 355 262 q 355 374 271 375 q 243 375 222 363 q 201 350 187 329 q 174 308 166 282 q 158 256 155 226 q 153 204 153 185 q 153 142 166 113 q 185 73 239 73 q 294 73 320 113 q 346 153 354 226 z m 281 474 q 368 476 382 614 q 384 627 384 640 q 384 678 371 703 q 354 736 309 736 q 263 736 239 703 q 214 670 208 614 q 207 595 207 579 q 207 475 281 474 z"},"\\":{"x_min":0,"x_max":367,"ha":367,"o":"m 224 0 l 89 810 l 179 810 l 314 0 z"},"e":{"x_min":0,"x_max":418,"ha":418,"o":"m 188 -8 q 139 -8 107 6 q 75 21 60 50 q 44 79 40 122 q 39 138 39 155 q 39 186 43 222 l 57 356 q 63 416 76 458 q 88 499 111 529 q 133 559 168 573 q 202 586 250 586 q 303 586 334 570 q 366 553 378 521 q 391 488 393 441 q 393 433 393 423 q 393 384 387 335 l 382 288 l 153 288 l 145 210 q 144 193 143 186 q 142 179 141 165 q 140 150 140 144 q 141 137 141 126 q 141 114 143 109 q 145 104 148 95 q 150 87 155 83 q 159 80 165 75 q 170 71 178 70 q 186 68 196 68 q 230 68 247 92 q 263 116 268 165 l 271 201 l 373 201 l 370 177 q 351 -8 188 -8 z m 160 344 l 287 344 l 292 396 q 294 424 294 445 q 294 452 294 458 q 293 483 281 497 q 268 510 242 510 q 203 510 187 482 q 171 454 163 376 z"},"b":{"x_min":0,"x_max":444,"ha":444,"o":"m 233 -8 q 181 -8 140 43 l 136 0 l 32 0 l 117 810 l 221 810 l 192 532 q 244 586 307 586 q 335 586 357 576 q 378 565 390 546 q 402 526 409 505 q 416 483 417 457 q 418 437 418 420 q 418 414 418 409 q 418 389 416 367 l 401 229 q 376 -8 233 -8 z m 221 73 q 235 73 246 78 q 256 83 264 94 q 271 105 277 117 q 282 130 286 150 q 290 169 292 187 q 295 204 297 229 l 312 367 q 315 406 315 437 q 315 468 302 486 q 290 505 263 505 q 226 505 186 474 l 146 100 q 179 73 221 73 z"},"%":{"x_min":0,"x_max":875,"ha":875,"o":"m 215 461 q 239 461 254 476 q 270 492 276 513 q 282 534 285 564 l 293 640 q 294 659 294 675 q 294 683 294 690 q 293 712 281 725 q 268 738 244 738 q 225 738 212 731 q 199 724 192 709 q 185 694 181 678 q 177 662 175 639 l 167 563 q 165 544 165 528 q 165 521 165 513 q 166 490 179 476 q 191 461 215 461 z m 207 383 q 70 383 70 527 q 70 546 73 567 l 80 635 q 89 725 130 771 q 171 817 252 817 q 333 817 365 773 q 389 739 389 678 q 389 660 387 640 l 379 564 q 370 476 328 429 q 287 383 207 383 z m 669 73 q 693 73 709 89 q 724 104 730 125 q 736 146 739 176 l 747 252 q 749 272 749 289 q 749 296 749 302 q 748 324 735 337 q 723 351 699 351 q 680 351 667 343 q 654 336 647 321 q 639 306 635 290 q 632 274 629 251 l 621 175 q 620 158 620 143 q 620 134 620 125 q 621 103 634 88 q 646 73 669 73 z m 661 -5 q 525 -5 525 141 q 525 159 527 179 l 534 247 q 543 337 585 384 q 626 430 707 430 q 788 430 819 385 q 843 351 844 292 q 844 273 841 252 l 833 176 q 815 -5 661 -5 z m 257 0 l 568 812 l 658 812 l 347 0 z"},"m":{"x_min":0,"x_max":664,"ha":664,"o":"m 31 0 l 91 578 l 194 578 l 189 521 q 264 586 336 586 q 401 586 410 516 q 489 586 564 586 q 588 586 605 576 q 622 565 629 549 q 636 532 639 511 q 640 501 640 491 q 640 479 638 467 l 589 0 l 485 0 l 531 438 q 532 448 532 457 q 532 477 526 489 q 519 505 492 505 q 458 505 410 467 q 410 466 409 462 q 409 458 409 457 l 361 0 l 257 0 l 303 438 q 304 448 304 457 q 305 477 299 489 q 291 505 264 505 q 230 505 183 468 l 134 0 z"},"#":{"x_min":0,"x_max":483,"ha":483,"o":"m 12 0 l 84 290 l 39 290 l 47 367 l 104 367 l 129 469 l 62 469 l 70 547 l 148 547 l 214 810 l 318 810 l 252 547 l 342 547 l 408 810 l 511 810 l 445 547 l 487 547 l 479 469 l 426 469 l 400 367 l 464 367 l 456 290 l 381 290 l 309 0 l 205 0 l 277 290 l 188 290 l 115 0 z m 207 367 l 297 367 l 323 469 l 233 469 z"},",":{"x_min":0,"x_max":186,"ha":186,"o":"m 21 -130 l 8 -85 q 36 -76 53 -53 q 70 -31 74 0 l 18 0 l 30 114 l 138 114 l 126 3 q 121 -50 96 -81 q 70 -112 21 -130 z"},"n":{"x_min":0,"x_max":436,"ha":436,"o":"m 31 0 l 91 578 l 194 578 l 188 521 q 266 586 337 586 q 361 586 378 576 q 395 565 401 549 q 408 532 411 511 q 412 501 413 492 q 413 479 411 467 l 362 0 l 258 0 l 304 438 q 305 448 305 457 q 306 477 300 489 q 292 505 265 505 q 231 505 183 467 l 134 0 z"},"h":{"x_min":0,"x_max":442,"ha":442,"o":"m 33 0 l 118 810 l 222 810 l 191 518 q 269 586 342 586 q 367 586 384 576 q 400 565 407 549 q 414 532 417 511 q 418 501 418 491 q 418 479 417 467 l 367 0 l 264 0 l 310 438 q 311 449 311 458 q 311 478 305 488 q 297 505 271 505 q 235 505 185 465 l 137 0 z"},"z":{"x_min":0,"x_max":345,"ha":345,"o":"m 8 0 l 16 70 l 240 500 l 79 500 l 87 578 l 359 578 l 353 521 l 127 78 l 303 78 l 294 0 z"},"B":{"x_min":0,"x_max":521,"ha":521,"o":"m 40 0 l 125 810 l 309 810 q 419 810 466 760 q 505 719 505 643 q 505 626 503 607 q 487 453 371 436 q 439 419 467 368 q 487 330 487 271 q 487 253 485 232 q 474 123 417 61 q 359 0 254 0 z m 158 79 l 238 79 q 311 79 342 114 q 372 149 381 232 q 383 249 383 264 q 383 318 361 349 q 334 388 261 387 l 190 387 z m 199 470 l 270 470 q 339 470 370 502 q 400 534 408 607 q 409 622 409 634 q 409 649 407 662 q 403 684 394 697 q 384 710 363 717 q 342 724 319 726 q 295 729 257 729 l 226 729 z"},"K":{"x_min":0,"x_max":493,"ha":493,"o":"m 40 0 l 125 810 l 234 810 l 194 424 l 423 810 l 525 810 l 327 454 l 467 0 l 360 0 l 238 403 l 183 317 l 149 0 z"},"R":{"x_min":0,"x_max":518,"ha":518,"o":"m 40 0 l 125 810 l 291 810 q 412 810 463 759 q 504 718 504 636 q 504 617 502 596 q 485 438 381 407 l 455 0 l 349 0 l 281 382 l 190 382 l 149 0 z m 198 460 l 247 460 q 321 460 355 490 q 389 519 397 596 q 399 614 399 630 q 399 678 381 701 q 357 731 282 731 l 227 731 z"},"T":{"x_min":0,"x_max":399,"ha":399,"o":"m 124 0 l 200 729 l 51 729 l 60 810 l 462 810 l 454 729 l 310 729 l 233 0 z"},"P":{"x_min":0,"x_max":480,"ha":480,"o":"m 40 0 l 125 810 l 326 810 q 431 810 472 753 q 504 708 504 631 q 504 610 502 587 q 491 489 435 433 q 378 377 281 377 l 189 377 l 149 0 z m 198 456 l 253 456 q 328 456 359 483 q 390 511 397 586 q 401 615 401 637 q 401 642 401 646 q 400 671 396 687 q 391 704 376 713 q 362 723 340 727 q 319 731 284 731 l 227 731 z"},"|":{"x_min":0,"x_max":237,"ha":237,"o":"m 31 -148 l 132 810 l 228 810 l 127 -148 z"},"t":{"x_min":0,"x_max":305,"ha":305,"o":"m 182 -8 q 116 -8 92 26 q 72 54 72 103 q 72 115 73 129 l 113 509 l 52 509 l 59 578 l 120 578 l 138 748 l 242 748 l 224 578 l 317 578 l 310 509 l 217 509 l 177 136 q 176 126 176 118 q 176 96 183 86 q 192 72 223 72 q 247 72 264 75 l 255 -2 q 213 -8 182 -8 z"},"M":{"x_min":0,"x_max":658,"ha":658,"o":"m 38 0 l 138 810 l 245 810 l 320 148 l 536 810 l 643 810 l 573 0 l 485 0 l 538 594 l 336 0 l 274 0 l 199 594 l 127 0 z"},"g":{"x_min":0,"x_max":435,"ha":435,"o":"m 189 -180 q 158 -180 134 -179 q 111 -178 85 -175 q 60 -171 42 -165 q 25 -159 10 -149 q -4 -139 -10 -124 q -14 -113 -15 -99 q -15 -94 -14 -89 q -9 -45 18 -12 q 46 21 84 41 q 58 49 45 65 q 34 79 34 96 q 34 99 34 102 q 37 131 55 154 q 73 177 110 208 q 78 234 66 274 q 58 300 58 335 q 58 356 61 381 q 71 481 118 534 q 165 586 244 586 q 333 586 357 522 q 365 532 390 551 q 415 570 441 582 l 459 589 l 478 521 q 457 517 420 504 q 384 490 375 483 q 381 466 383 434 q 384 419 384 407 q 384 391 382 377 q 373 283 330 230 q 287 177 202 177 q 192 177 171 180 q 149 184 147 185 q 147 184 140 175 q 133 165 131 161 q 128 158 125 150 q 121 143 121 137 q 120 126 131 121 q 142 115 167 112 q 170 111 212 107 q 254 104 256 103 q 377 90 377 -16 q 377 -26 376 -37 q 368 -113 323 -147 q 277 -180 189 -180 z m 197 -98 q 244 -98 269 -84 q 293 -70 296 -40 q 297 -35 297 -31 q 297 -10 283 2 q 268 16 221 21 l 132 29 q 115 17 98 -4 q 81 -25 79 -49 q 78 -52 78 -56 q 78 -69 84 -77 q 92 -87 119 -93 q 146 -98 197 -98 z m 209 251 q 228 251 241 257 q 255 263 264 273 q 273 284 279 301 q 286 318 289 336 q 292 354 295 381 q 298 413 298 438 q 298 445 298 451 q 297 480 282 497 q 268 514 238 514 q 195 514 177 482 q 158 449 151 381 q 148 354 148 330 q 148 322 149 315 q 150 287 165 269 q 180 251 209 251 z"},"j":{"x_min":0,"x_max":229,"ha":229,"o":"m -57 -140 l -49 -65 q -34 -68 -21 -68 q 12 -68 27 -49 q 43 -31 46 3 l 107 578 l 210 578 l 149 -8 q 142 -75 101 -111 q 61 -146 -5 -146 q -41 -146 -57 -140 z m 116 663 l 127 774 l 232 774 l 220 663 z"},"i":{"x_min":0,"x_max":226,"ha":226,"o":"m 38 0 l 98 578 l 202 578 l 141 0 z m 107 663 l 119 774 l 223 774 l 211 663 z"},"y":{"x_min":0,"x_max":390,"ha":390,"o":"m 6 -145 l 14 -66 q 51 -66 73 -63 q 95 -60 107 -52 q 120 -43 123 -30 q 125 -23 125 -12 q 125 -4 124 5 q 120 42 114 84 l 49 578 l 154 578 l 188 140 l 312 578 l 417 578 l 214 -33 q 193 -94 147 -119 q 100 -145 20 -145 z"},"@":{"x_min":0,"x_max":898,"ha":898,"o":"m 430 -131 q 360 -131 301 -116 q 241 -101 193 -67 q 146 -34 114 14 q 83 62 69 132 q 62 173 62 220 q 62 251 65 285 q 76 391 107 477 q 137 563 183 624 q 229 686 289 728 q 349 770 419 790 q 489 810 567 810 q 619 810 662 799 q 706 788 739 768 q 772 749 798 721 q 825 693 841 659 q 857 625 867 587 q 877 548 878 506 q 878 498 878 489 q 878 455 875 420 q 865 330 828 258 q 791 185 732 143 q 673 101 605 101 q 562 101 538 125 q 517 147 517 183 q 517 188 517 192 q 484 107 411 101 q 404 101 398 101 q 358 101 331 122 q 299 146 287 188 q 279 216 279 249 q 279 264 280 280 q 285 326 301 372 q 317 419 343 460 q 368 501 400 534 q 432 566 471 585 q 510 604 551 604 q 566 604 584 597 q 602 589 614 579 l 625 596 l 701 596 l 606 230 q 602 212 600 202 q 599 193 599 181 q 599 169 605 164 q 611 159 623 159 q 663 159 700 192 q 738 225 764 282 q 790 339 798 410 q 802 439 802 466 q 802 502 796 534 q 786 591 757 635 q 729 679 677 704 q 624 729 553 729 q 396 728 289 609 q 181 490 160 289 q 156 258 156 230 q 156 179 167 136 q 185 70 224 30 q 264 -11 320 -31 q 376 -52 448 -52 q 534 -52 632 -24 l 643 -100 q 527 -131 430 -131 z m 439 181 q 466 185 490 211 q 515 238 529 287 l 589 521 q 575 528 561 528 q 521 528 481 495 q 441 462 413 404 q 384 347 377 279 q 376 268 376 258 q 376 225 389 203 q 402 180 427 180 q 433 180 439 181 z"},".":{"x_min":0,"x_max":188,"ha":188,"o":"m 26 0 l 39 118 l 143 118 l 131 0 z"},"p":{"x_min":0,"x_max":443,"ha":443,"o":"m 11 -190 l 91 578 l 195 578 l 190 532 q 243 586 306 586 q 331 586 350 578 q 369 569 381 556 q 393 543 401 523 q 409 504 413 485 q 416 466 417 443 q 417 430 417 418 q 417 410 417 403 q 416 386 415 367 l 400 229 q 375 -8 232 -8 q 180 -8 139 43 l 114 -190 z m 220 73 q 237 73 249 82 q 261 90 269 102 q 276 114 282 136 q 288 159 290 178 q 293 198 296 229 l 311 367 q 314 406 314 437 q 314 468 302 486 q 289 505 262 505 q 226 505 184 474 l 145 101 q 178 73 220 73 z"},"X":{"x_min":0,"x_max":480,"ha":480,"o":"m -11 0 l 203 424 l 77 810 l 178 810 l 273 520 l 418 810 l 521 810 l 308 415 l 443 0 l 341 0 l 240 309 l 91 0 z"},"*":{"x_min":0,"x_max":396,"ha":396,"o":"m 170 470 l 112 507 l 204 619 l 90 665 l 123 730 l 229 670 l 232 809 l 311 809 l 284 670 l 404 730 l 422 665 l 299 618 l 368 507 l 301 470 l 249 596 z"},"Y":{"x_min":0,"x_max":480,"ha":480,"o":"m 165 0 l 194 284 l 74 810 l 176 810 l 260 414 l 425 810 l 529 810 l 299 284 l 269 0 z"},"c":{"x_min":0,"x_max":408,"ha":408,"o":"m 186 -8 q 134 -8 102 8 q 69 25 56 55 q 42 85 39 127 q 38 140 38 155 q 38 186 43 221 l 57 355 q 63 414 74 454 q 85 494 107 525 q 128 557 163 572 q 198 586 249 586 q 295 586 325 574 q 354 562 369 540 q 384 517 388 482 q 390 467 389 451 q 389 429 386 404 l 382 370 l 289 370 l 292 404 q 295 426 295 443 q 295 472 288 486 q 277 510 242 510 q 202 510 187 482 q 171 454 163 376 l 144 196 q 141 165 141 142 q 141 110 147 95 q 158 68 196 68 q 212 68 224 73 q 236 79 243 87 q 250 95 256 109 q 261 124 263 137 q 266 151 268 173 l 273 218 l 367 218 l 363 179 q 358 133 347 100 q 336 67 316 42 q 296 17 264 4 q 231 -8 186 -8 z"},"!":{"x_min":0,"x_max":207,"ha":207,"o":"m 27 0 l 39 108 l 144 108 l 132 0 z m 80 173 l 112 810 l 217 810 l 116 173 z"},"/":{"x_min":0,"x_max":367,"ha":367,"o":"m 4 0 l 309 810 l 399 810 l 94 0 z"},"[":{"x_min":0,"x_max":336,"ha":336,"o":"m 21 -182 l 125 810 l 341 810 l 335 756 l 224 756 l 131 -128 l 242 -128 l 237 -182 z"},"6":{"x_min":0,"x_max":500,"ha":500,"o":"m 231 -9 q 181 -9 144 11 q 108 32 88 68 q 69 104 62 151 q 59 176 59 204 q 59 229 62 255 l 91 534 q 96 583 106 623 q 116 664 134 701 q 152 737 177 763 q 202 788 238 803 q 274 818 318 818 q 412 818 457 767 q 496 724 496 647 q 496 634 495 621 q 494 615 494 609 l 390 609 q 392 626 392 641 q 392 680 379 702 q 362 732 311 732 q 215 732 197 559 l 184 433 q 203 458 236 473 q 268 488 310 488 q 359 488 392 471 q 424 455 440 424 q 456 394 461 351 q 463 333 463 313 q 463 285 459 254 q 453 197 437 150 q 421 104 394 67 q 367 31 325 11 q 284 -9 231 -9 z m 241 77 q 267 77 287 89 q 307 100 320 121 q 333 143 341 169 q 349 195 352 229 q 354 254 356 270 q 357 286 357 308 q 357 311 357 314 q 357 331 355 342 q 353 354 347 369 q 342 384 333 392 q 324 399 309 405 q 295 410 275 410 q 244 410 218 394 q 192 377 176 355 l 163 232 q 160 209 160 189 q 160 77 241 77 z"},"r":{"x_min":0,"x_max":319,"ha":319,"o":"m 34 0 l 94 578 l 198 578 l 189 496 q 252 585 327 585 q 329 585 344 584 l 332 470 q 307 481 277 481 q 250 481 227 469 q 205 457 182 425 l 137 0 z"},"2":{"x_min":0,"x_max":500,"ha":500,"o":"m 22 0 l 30 74 l 271 396 q 277 406 296 430 q 314 455 321 464 q 328 474 342 495 q 355 516 361 531 q 367 545 373 566 q 379 587 381 610 q 383 626 383 640 q 383 732 311 732 q 212 732 196 581 l 194 568 q 193 556 193 555 l 89 555 l 92 582 q 104 696 157 757 q 210 818 314 818 q 410 818 453 764 q 488 720 487 646 q 487 628 485 608 q 481 573 472 542 q 463 512 446 482 q 429 452 416 434 q 403 416 377 382 q 373 376 371 374 l 154 87 l 412 87 l 402 0 z"},"{":{"x_min":0,"x_max":296,"ha":296,"o":"m 229 -189 q 197 -189 175 -188 q 152 -187 133 -182 q 114 -178 103 -172 q 92 -167 83 -155 q 75 -142 72 -130 q 69 -117 68 -94 q 68 -88 68 -83 q 68 -65 69 -47 q 71 -24 75 13 l 90 152 q 93 187 94 208 q 94 214 94 220 q 94 233 93 244 q 91 260 85 266 q 79 273 70 276 q 61 279 45 279 l 53 351 q 79 351 91 360 q 104 370 111 395 q 118 421 124 478 l 139 616 q 143 653 146 676 q 148 699 154 722 q 160 746 166 758 q 171 771 182 783 q 193 795 206 801 q 218 806 238 811 q 258 815 280 816 q 303 817 335 817 l 328 741 q 279 741 268 722 q 257 704 248 616 l 231 462 q 224 391 203 357 q 183 323 150 315 q 182 307 195 273 q 203 252 203 216 q 203 194 200 168 l 184 13 q 177 -30 177 -57 q 177 -64 178 -70 q 180 -98 191 -105 q 203 -112 238 -112 z"},"9":{"x_min":0,"x_max":500,"ha":500,"o":"m 226 -9 q 131 -9 86 43 q 48 86 47 162 q 47 175 49 190 q 50 194 50 200 l 154 200 q 152 182 152 167 q 151 128 164 106 q 182 76 235 77 q 328 77 346 250 l 359 376 q 318 321 233 321 q 184 321 151 338 q 119 354 103 385 q 87 416 83 459 q 81 477 81 497 q 81 524 84 556 q 90 613 106 659 q 123 706 150 742 q 177 778 218 798 q 259 818 312 818 q 363 818 399 798 q 436 778 455 741 q 475 705 481 658 q 485 634 484 607 q 484 582 481 554 l 453 276 q 447 227 437 186 q 427 146 409 109 q 391 72 366 46 q 341 21 305 6 q 270 -9 226 -9 z m 268 400 q 328 400 368 455 l 380 577 q 382 601 382 621 q 382 732 303 732 q 208 732 191 580 q 188 554 188 538 q 186 522 186 501 q 186 499 186 498 q 186 479 188 467 q 190 454 196 440 q 201 426 210 418 q 220 410 234 405 q 249 400 268 400 z"}," ":{"x_min":0,"x_max":226,"ha":226,"o":""},"I":{"x_min":0,"x_max":245,"ha":245,"o":"m 46 0 l 131 810 l 238 810 l 153 0 z"},"H":{"x_min":0,"x_max":559,"ha":559,"o":"m 40 0 l 125 810 l 234 810 l 198 459 l 411 459 l 447 810 l 557 810 l 472 0 l 362 0 l 402 381 l 189 381 l 149 0 z"},"4":{"x_min":0,"x_max":500,"ha":500,"o":"m 252 0 l 275 215 l 40 215 l 52 330 l 312 810 l 441 810 l 389 313 l 479 313 l 469 215 l 378 215 l 356 0 z m 155 313 l 285 313 l 323 678 z"},"~":{"x_min":0,"x_max":443,"ha":443,"o":"m 308 364 q 288 364 261 378 q 234 393 208 407 q 183 421 166 421 q 139 421 89 383 l 57 433 q 86 459 122 482 q 158 504 182 504 q 202 504 229 490 q 255 476 280 462 q 306 448 323 448 q 333 448 346 454 q 359 460 368 467 q 377 473 397 487 l 430 439 q 402 411 367 387 q 333 364 308 364 z"},"D":{"x_min":0,"x_max":526,"ha":526,"o":"m 158 79 l 225 79 q 262 79 287 89 q 312 99 327 112 q 341 126 351 157 q 360 188 364 212 q 368 236 373 284 l 401 551 q 406 590 406 620 q 406 637 404 652 q 400 691 374 710 q 348 729 291 729 l 226 729 z m 40 0 l 125 810 l 301 810 q 368 810 412 794 q 457 779 480 747 q 505 716 512 671 q 516 648 516 620 q 516 594 513 563 l 481 263 q 467 131 407 65 q 347 0 225 0 z"},"^":{"x_min":0,"x_max":438,"ha":438,"o":"m 61 490 l 228 810 l 333 810 l 433 490 l 335 490 l 272 733 l 159 490 z"},"0":{"x_min":0,"x_max":500,"ha":500,"o":"m 234 76 q 329 76 346 229 l 382 581 q 385 601 385 621 q 385 629 385 638 q 383 665 376 687 q 369 708 350 720 q 332 733 303 733 q 280 733 262 725 q 244 716 232 703 q 220 689 212 669 q 203 648 198 627 q 194 606 191 581 l 155 229 q 152 210 152 192 q 152 182 153 172 q 155 145 163 123 q 170 102 189 89 q 207 76 234 76 z m 225 -9 q 158 -9 116 22 q 73 54 59 106 q 49 142 48 186 q 48 207 51 230 l 87 579 q 99 690 155 754 q 210 818 312 818 q 413 817 456 754 q 490 704 489 625 q 489 603 487 579 l 451 230 q 439 121 382 56 q 326 -9 225 -9 z"},"F":{"x_min":0,"x_max":390,"ha":390,"o":"m 40 0 l 125 810 l 436 810 l 428 731 l 227 731 l 198 458 l 355 458 l 347 380 l 189 380 l 149 0 z"},"`":{"x_min":0,"x_max":273,"ha":273,"o":"m 206 612 l 118 810 l 222 810 l 258 612 z"},"k":{"x_min":0,"x_max":426,"ha":426,"o":"m 32 1 l 118 811 l 221 811 l 170 325 l 356 578 l 465 578 l 304 352 l 400 0 l 296 0 l 219 298 l 159 222 l 136 1 z"},"u":{"x_min":0,"x_max":437,"ha":437,"o":"m 112 -8 q 88 -8 72 2 q 55 13 48 29 q 41 46 38 67 q 37 77 37 87 q 37 99 39 111 l 87 578 l 191 578 l 145 141 q 144 130 144 122 q 144 102 150 90 q 158 73 185 73 q 219 73 266 111 l 315 578 l 418 578 l 358 0 l 254 0 l 261 58 q 185 -8 112 -8 z"},"]":{"x_min":0,"x_max":307,"ha":307,"o":"m -15 -182 l -9 -128 l 103 -128 l 195 756 l 83 756 l 89 810 l 305 810 l 201 -182 z"},"U":{"x_min":0,"x_max":543,"ha":543,"o":"m 247 -9 q 183 -9 141 11 q 100 31 82 67 q 62 104 58 154 q 56 174 56 195 q 56 229 61 268 l 118 810 l 222 810 l 165 263 q 160 232 160 205 q 160 197 161 190 q 162 156 170 131 q 178 106 199 92 q 221 77 256 77 q 284 77 305 87 q 327 97 340 112 q 354 128 363 153 q 373 178 377 203 q 382 229 386 263 l 443 810 l 547 810 l 490 268 q 485 215 475 175 q 465 135 447 99 q 429 63 403 40 q 377 18 338 4 q 298 -9 247 -9 z"},"o":{"x_min":0,"x_max":421,"ha":421,"o":"m 271 199 l 290 378 q 292 397 293 407 q 293 417 294 434 q 294 450 293 459 q 292 468 288 479 q 285 490 279 496 q 272 501 263 506 q 253 510 240 510 q 225 510 213 505 q 202 500 194 490 q 186 480 181 470 q 176 460 172 442 q 168 425 167 412 q 165 400 163 378 l 144 199 q 142 180 141 170 q 141 160 140 144 q 140 127 141 119 q 143 110 146 99 q 149 87 156 82 q 162 76 171 72 q 181 68 194 68 q 207 68 218 73 q 228 77 235 82 q 243 87 248 99 q 254 110 257 118 q 261 127 264 144 q 267 160 268 170 q 269 180 271 199 z m 40 117 q 38 134 38 153 q 38 178 42 206 l 59 372 q 70 477 114 532 q 157 586 248 586 q 295 586 327 571 q 358 556 374 528 q 390 500 395 461 q 397 443 396 424 q 396 399 393 372 l 375 206 q 370 154 358 116 q 345 79 323 50 q 301 21 267 6 q 232 -8 186 -8 q 139 -8 107 7 q 76 21 60 49 q 45 77 40 117 z"},"N":{"x_min":0,"x_max":527,"ha":527,"o":"m 40 0 l 125 810 l 200 810 l 375 263 l 433 810 l 524 810 l 439 0 l 369 0 l 192 562 l 132 0 z"},"+":{"x_min":0,"x_max":412,"ha":412,"o":"m 164 214 l 180 377 l 41 377 l 49 455 l 188 455 l 206 617 l 284 617 l 267 455 l 411 455 l 403 377 l 258 377 l 241 214 z"},"G":{"x_min":0,"x_max":534,"ha":534,"o":"m 231 -10 q 121 -10 80 59 q 49 111 49 199 q 49 229 53 264 l 82 539 q 89 608 104 657 q 120 707 147 744 q 175 781 219 800 q 264 818 327 818 q 438 818 481 761 q 514 716 514 634 q 514 609 511 581 l 508 551 l 406 551 l 408 577 q 412 610 412 636 q 412 651 411 664 q 407 699 386 716 q 364 732 319 732 q 298 732 281 728 q 264 723 252 715 q 240 708 231 694 q 221 681 215 668 q 209 655 205 635 q 201 614 198 597 q 195 580 193 555 l 161 252 q 157 221 157 195 q 157 145 170 118 q 188 77 253 77 q 317 77 346 121 q 374 165 384 262 l 391 323 l 286 323 l 295 400 l 498 400 l 456 0 l 387 0 l 386 93 q 339 -10 231 -10 z"},"q":{"x_min":0,"x_max":440,"ha":440,"o":"m 239 -190 l 263 37 q 216 -8 165 -8 q 164 -8 163 -8 q 89 -9 61 46 q 41 83 41 153 q 41 187 45 228 l 57 339 q 61 383 68 417 q 75 451 88 484 q 101 517 118 538 q 136 560 163 573 q 189 586 224 586 q 276 586 315 541 l 319 578 l 423 578 l 342 -190 z m 199 73 q 231 73 269 97 l 309 478 q 276 505 242 505 q 223 505 209 496 q 195 486 187 468 q 178 450 173 429 q 167 408 165 379 l 147 219 q 144 181 144 151 q 144 147 144 144 q 145 111 158 92 q 171 73 199 73 z"},"d":{"x_min":0,"x_max":439,"ha":439,"o":"m 163 -8 q 163 -8 162 -8 q 88 -8 60 46 q 40 83 40 155 q 40 188 44 228 l 56 339 q 60 383 67 417 q 74 451 86 484 q 99 517 117 538 q 134 560 161 573 q 188 586 222 586 q 274 586 314 541 l 342 810 l 446 810 l 361 0 l 257 0 l 261 37 q 214 -8 163 -8 z m 198 73 q 229 73 268 97 l 308 478 q 274 505 241 505 q 222 505 208 495 q 194 486 185 468 q 176 450 171 429 q 166 408 163 379 l 146 219 q 143 181 143 151 q 143 147 143 144 q 143 111 156 92 q 170 73 198 73 z"},"1":{"x_min":0,"x_max":483,"ha":483,"o":"m 201 0 l 272 675 q 270 672 235 664 q 201 656 166 649 q 130 643 129 642 l 138 721 q 262 752 311 810 l 390 810 l 305 0 z"},"5":{"x_min":0,"x_max":500,"ha":500,"o":"m 229 -8 q 124 -8 85 51 q 56 96 56 173 q 56 197 59 225 l 162 225 q 159 204 159 185 q 159 177 159 169 q 161 143 167 121 q 173 100 192 87 q 210 74 239 74 q 265 74 284 84 q 303 94 314 110 q 326 125 334 152 q 342 180 346 204 q 350 229 354 268 q 358 311 358 344 q 358 354 358 364 q 356 403 337 424 q 319 445 280 445 q 249 445 223 426 q 197 407 181 378 l 92 378 l 138 810 l 484 810 l 473 707 l 221 707 l 190 477 q 238 523 313 523 q 360 523 393 505 q 425 487 440 455 q 456 423 461 379 q 463 360 463 340 q 463 312 459 282 q 452 216 437 166 q 422 116 396 75 q 370 35 328 13 q 286 -8 229 -8 z"}}}
